<!-- Generated by IcoMoon.io -->
<svg version="1.1" xmlns="http://www.w3.org/2000/svg" width="1024" height="1024" viewBox="0 0 1024 1024">
<title></title>
<g id="icomoon-ignore">
</g>
<path fill="#000" opacity="0.402062" stroke-linejoin="miter" stroke-linecap="butt" stroke-miterlimit="4" stroke-width="21.3333" stroke="#000" d="M617.758 702.483h336.532v121.446h-336.532v-121.446z"></path>
<path fill="#000" opacity="0.402062" stroke-linejoin="miter" stroke-linecap="butt" stroke-miterlimit="4" stroke-width="21.3333" stroke="#000" d="M954.29 702.488c0 0 0 121.439 0 121.439 35.892 0.229 86.769-27.208 86.769-60.727s-40.052-60.712-86.769-60.712z"></path>
<path fill="#000" opacity="0.402062" stroke-linejoin="miter" stroke-linecap="butt" stroke-miterlimit="4" stroke-width="21.3333" stroke="#000" d="M617.758 702.488c0 0 0 121.439 0 121.439-35.893 0.229-86.769-27.208-86.769-60.727s40.051-60.712 86.769-60.712z"></path>
<path fill="#000" opacity="0.402062" stroke-linejoin="miter" stroke-linecap="butt" stroke-miterlimit="4" stroke-width="21.3333" stroke="#000" d="M489.649 501.169h336.532v121.446h-336.532v-121.446z"></path>
<path fill="#000" opacity="0.402062" stroke-linejoin="miter" stroke-linecap="butt" stroke-miterlimit="4" stroke-width="21.3333" stroke="#000" d="M826.181 501.173c0 0 0 121.439 0 121.439 35.892 0.229 86.769-27.208 86.769-60.727s-40.052-60.712-86.769-60.712z"></path>
<path fill="#000" opacity="0.402062" stroke-linejoin="miter" stroke-linecap="butt" stroke-miterlimit="4" stroke-width="21.3333" stroke="#000" d="M489.649 501.173c0 0 0 121.439 0 121.439-35.893 0.229-86.769-27.208-86.769-60.727s40.051-60.712 86.769-60.712z"></path>
<path fill="#000" opacity="0.634286" stroke-linejoin="miter" stroke-linecap="butt" stroke-miterlimit="4" stroke-width="21.3333" stroke="#000" d="M495.761 725.334v-192h58.905v192h-58.905z"></path>
<path fill="#000" opacity="0.634286" stroke-linejoin="miter" stroke-linecap="butt" stroke-miterlimit="4" stroke-width="21.3333" stroke="#000" d="M539.969 725.334v-192h14.573v192h-14.573z"></path>
<path fill="#000" opacity="0.634286" stroke-linejoin="miter" stroke-linecap="butt" stroke-miterlimit="4" stroke-width="21.3333" stroke="#000" d="M490.666 725.334v-192h15.061v192h-15.061z"></path>
<path fill="#000" opacity="0.634286" stroke-linejoin="miter" stroke-linecap="butt" stroke-miterlimit="4" stroke-width="21.3333" stroke="#000" d="M507.214 725.334v-192h23.838v192h-23.838z"></path>
<path fill="#d4d4d4" stroke-linejoin="miter" stroke-linecap="butt" stroke-miterlimit="4" stroke-width="21.8731" stroke="#5e5e5e" d="M485.51 479.999h330.32c14.825 0 26.842 12.018 26.842 26.842v31.649c0 14.825-12.018 26.842-26.842 26.842h-330.32c-14.825 0-26.842-12.018-26.842-26.842v-31.649c0-14.825 12.018-26.842 26.842-26.842z"></path>
<path fill="#d4d4d4" stroke-linejoin="miter" stroke-linecap="butt" stroke-miterlimit="4" stroke-width="21.7434" stroke="#5e5e5e" d="M513.525 117.327h274.291c30.297 0 54.857 24.56 54.857 54.857v250.48c0 30.297-24.56 54.857-54.857 54.857h-274.291c-30.297 0-54.857-24.56-54.857-54.857v-250.48c0-30.297 24.56-54.857 54.857-54.857z"></path>
<path fill="#fff" opacity="0.662857" stroke-linejoin="miter" stroke-linecap="butt" stroke-miterlimit="4" stroke-width="21.2431" stroke="#fff" d="M524.189 172.052h274.286c6.733 0 12.19 5.458 12.19 12.191v210.286c0 6.733-5.458 12.191-12.19 12.191h-274.286c-6.733 0-12.19-5.458-12.19-12.191v-210.286c0-6.733 5.458-12.191 12.19-12.191z"></path>
<path fill="#204a87" stroke-linejoin="miter" stroke-linecap="butt" stroke-miterlimit="4" stroke-width="21.2431" stroke="#5e5e5e" d="M513.524 160h274.286c6.733 0 12.19 5.458 12.19 12.191v210.286c0 6.733-5.458 12.191-12.19 12.191h-274.286c-6.733 0-12.19-5.458-12.19-12.191v-210.286c0-6.733 5.458-12.191 12.19-12.191z"></path>
<path fill="#fff" stroke-linejoin="miter" stroke-linecap="butt" stroke-miterlimit="4" stroke-width="21.3333" stroke="#000" d="M511.611 170.431h276.599v32.536h-276.599v-32.536z"></path>
<path fill="#a4a0b5" stroke-linejoin="miter" stroke-linecap="butt" stroke-miterlimit="4" stroke-width="21.3333" stroke="#000" d="M533.483 174.741h61.989v24.102h-61.989v-24.102z"></path>
<path fill="none" opacity="0.628571" stroke-linejoin="miter" stroke-linecap="butt" stroke-miterlimit="4" stroke-width="21.7434" stroke="#000" d="M513.489 139.528h274.362c17.205 0 31.152 13.947 31.152 31.152v253.487c0 17.205-13.947 31.152-31.152 31.152h-274.362c-17.205 0-31.152-13.947-31.152-31.152v-253.487c0-17.205 13.947-31.152 31.152-31.152z"></path>
<path fill="none" opacity="0.514286" stroke-linejoin="miter" stroke-linecap="butt" stroke-miterlimit="4" stroke-width="21.8731" stroke="#fdfdfd" d="M486.131 500.38h329.076c5.303 0 9.602 4.299 9.602 9.602v25.37c0 5.303-4.299 9.602-9.602 9.602h-329.076c-5.303 0-9.602-4.299-9.602-9.602v-25.37c0-5.303 4.299-9.602 9.602-9.602z"></path>
<path fill="#000" opacity="0.32" stroke-linejoin="miter" stroke-linecap="butt" stroke-miterlimit="4" stroke-width="21.3333" stroke="#000" d="M674.629 511.441h123.234v23.265h-123.234v-23.265z"></path>
<path fill="#000" opacity="0.325714" stroke-linejoin="miter" stroke-linecap="butt" stroke-miterlimit="4" stroke-width="21.3333" stroke="#000" d="M511.999 170.666v144.94c13.928 1.13 26.336 4.393 40.825 4.393 99.615 0 183.436-29.492 236.507-71.739v-77.593h-277.332z"></path>
<path fill="#000" opacity="0.634286" stroke-linejoin="miter" stroke-linecap="butt" stroke-miterlimit="4" stroke-width="21.3333" stroke="#000" d="M256 710.435h395.985v57.565h-395.985v-57.565z"></path>
<path fill="#000" opacity="0.634286" stroke-linejoin="miter" stroke-linecap="butt" stroke-miterlimit="4" stroke-width="21.3333" stroke="#000" d="M256 753.637h395.985v14.242h-395.985v-14.242z"></path>
<path fill="#000" opacity="0.634286" stroke-linejoin="miter" stroke-linecap="butt" stroke-miterlimit="4" stroke-width="21.3333" stroke="#000" d="M256 705.455h395.985v14.719h-395.985v-14.719z"></path>
<path fill="#000" opacity="0.634286" stroke-linejoin="miter" stroke-linecap="butt" stroke-miterlimit="4" stroke-width="21.3333" stroke="#000" d="M256 721.627h395.985v23.295h-395.985v-23.295z"></path>
<path fill="#eaeaea" stroke-linejoin="miter" stroke-linecap="butt" stroke-miterlimit="4" stroke-width="23.1661" stroke="#8a8a8a" d="M565.333 735.999c0 23.564-19.103 42.667-42.667 42.667s-42.667-19.103-42.667-42.667v0c0-23.564 19.103-42.667 42.667-42.667s42.667 19.103 42.667 42.667v0z"></path>
<path fill="#000" opacity="0.402062" stroke-linejoin="miter" stroke-linecap="butt" stroke-miterlimit="4" stroke-width="21.3333" stroke="#000" d="M58.761 737.829h276.122v143.742h-276.122v-143.742z"></path>
<path fill="#000" opacity="0.402062" stroke-linejoin="miter" stroke-linecap="butt" stroke-miterlimit="4" stroke-width="21.3333" stroke="#000" d="M334.884 737.835c0 0 0 143.734 0 143.734 29.449 0.271 71.193-32.203 71.193-71.876s-32.863-71.858-71.193-71.858z"></path>
<path fill="#000" opacity="0.402062" stroke-linejoin="miter" stroke-linecap="butt" stroke-miterlimit="4" stroke-width="21.3333" stroke="#000" d="M58.761 737.835c0 0 0 143.734 0 143.734-29.45 0.271-71.193-32.203-71.193-71.876s32.861-71.858 71.193-71.858z"></path>
<path fill="#000" stroke-linejoin="round" stroke-linecap="round" stroke-miterlimit="4" stroke-width="21.5582" stroke="#5e5e5e" d="M32 312.738v508.594h320.001v-511.659l-58.875-64.34h-205.196l-55.93 67.405z"></path>
<path fill="#fff" opacity="0.655367" stroke-linejoin="miter" stroke-linecap="butt" stroke-miterlimit="4" stroke-width="21.3333" stroke="#000" d="M91.959 258.247l-48.866 72.051h289.121l-52.938-69.932-187.317-2.119z"></path>
<path fill="#fff" opacity="0.348571" stroke-linejoin="miter" stroke-linecap="butt" stroke-miterlimit="4" stroke-width="21.5582" stroke="#fff" d="M92.284 366.407h222.352v62.936h-222.352v-62.936z"></path>
<path fill="none" stroke-linejoin="miter" stroke-linecap="butt" stroke-miterlimit="4" stroke-width="21.7182" stroke="#fff" d="M53.333 326.789v473.21h277.333v-475.942l-51.357-57.389h-177.186l-48.79 60.122z"></path>
<path fill="#000" opacity="0.525714" stroke-linejoin="miter" stroke-linecap="butt" stroke-miterlimit="4" stroke-width="23.7668" stroke="#000" d="M160 586.667h149.333v64h-149.333v-64z"></path>
<path fill="#c8c8c8" stroke-linejoin="miter" stroke-linecap="butt" stroke-miterlimit="4" stroke-width="21.3489" stroke="#acacac" d="M153.848 565.333h149.333v64h-149.333v-64z"></path>
<path fill="#fff" opacity="0.348571" stroke-linejoin="miter" stroke-linecap="butt" stroke-miterlimit="4" stroke-width="21.5582" stroke="#fff" d="M92.284 455.412h222.352v62.936h-222.352v-62.936z"></path>
<path fill="#c8c8c8" stroke-linejoin="miter" stroke-linecap="butt" stroke-miterlimit="4" stroke-width="20.9361" stroke="#acacac" d="M74.667 458.667h234.666v64h-234.666v-64z"></path>
<path fill="#c8c8c8" stroke-linejoin="miter" stroke-linecap="butt" stroke-miterlimit="4" stroke-width="20.9361" stroke="#acacac" d="M74.667 352h234.666v64h-234.666v-64z"></path>
<path fill="#c8c8c8" stroke-linejoin="miter" stroke-linecap="butt" stroke-miterlimit="4" stroke-width="46.3326" stroke="#979797" d="M117.333 608c0 11.782-9.551 21.334-21.334 21.334s-21.334-9.551-21.334-21.334v0c0-11.782 9.551-21.334 21.334-21.334s21.334 9.551 21.334 21.334v0z"></path>
<path fill="#fff" stroke-linejoin="miter" stroke-linecap="butt" stroke-miterlimit="4" stroke-width="21.3333" stroke="#000" d="M95.359 603.509c0 0.019 0 0.042 0 0.065 0 3.544-2.873 6.417-6.417 6.417s-6.417-2.873-6.417-6.417c0-0.023 0-0.046 0-0.069v0.003c0-0.019 0-0.042 0-0.065 0-3.544 2.873-6.417 6.417-6.417s6.417 2.873 6.417 6.417c0 0.023 0 0.046 0 0.069v-0.003z"></path>
<path fill="#000" opacity="0.2" stroke-linejoin="miter" stroke-linecap="butt" stroke-miterlimit="4" stroke-width="21.3333" stroke="#000" d="M128 640.002h21.333v149.334h-21.333v-149.334z"></path>
<path fill="#000" opacity="0.2" stroke-linejoin="miter" stroke-linecap="butt" stroke-miterlimit="4" stroke-width="21.3333" stroke="#000" d="M106.667 640.002h21.333v149.334h-21.333v-149.334z"></path>
<path fill="#000" opacity="0.2" stroke-linejoin="miter" stroke-linecap="butt" stroke-miterlimit="4" stroke-width="21.3333" stroke="#000" d="M149.333 640.002h21.333v149.334h-21.333v-149.334z"></path>
<path fill="#d4d4d4" stroke-linejoin="miter" stroke-linecap="butt" stroke-miterlimit="4" stroke-width="21.8731" stroke="#5e5e5e" d="M634.843 693.333h330.32c14.825 0 26.842 12.018 26.842 26.842v31.649c0 14.825-12.018 26.842-26.842 26.842h-330.32c-14.825 0-26.842-12.018-26.842-26.842v-31.649c0-14.825 12.018-26.842 26.842-26.842z"></path>
<path fill="#d4d4d4" stroke-linejoin="miter" stroke-linecap="butt" stroke-miterlimit="4" stroke-width="21.7434" stroke="#5e5e5e" d="M662.858 330.66h274.291c30.297 0 54.857 24.56 54.857 54.857v250.48c0 30.297-24.56 54.857-54.857 54.857h-274.291c-30.297 0-54.857-24.56-54.857-54.857v-250.48c0-30.297 24.56-54.857 54.857-54.857z"></path>
<path fill="#fff" opacity="0.662857" stroke-linejoin="miter" stroke-linecap="butt" stroke-miterlimit="4" stroke-width="21.2431" stroke="#fff" d="M673.523 385.386h274.286c6.733 0 12.19 5.458 12.19 12.191v210.286c0 6.733-5.458 12.191-12.19 12.191h-274.286c-6.733 0-12.19-5.458-12.19-12.191v-210.286c0-6.733 5.458-12.191 12.19-12.191z"></path>
<path fill="#204a87" stroke-linejoin="miter" stroke-linecap="butt" stroke-miterlimit="4" stroke-width="21.2431" stroke="#5e5e5e" d="M662.857 373.334h274.286c6.733 0 12.19 5.458 12.19 12.191v210.286c0 6.733-5.458 12.191-12.19 12.191h-274.286c-6.733 0-12.19-5.458-12.19-12.191v-210.286c0-6.733 5.458-12.191 12.19-12.191z"></path>
<path fill="#fff" stroke-linejoin="miter" stroke-linecap="butt" stroke-miterlimit="4" stroke-width="21.3333" stroke="#000" d="M660.944 383.765h276.599v32.536h-276.599v-32.536z"></path>
<path fill="#a4a0b5" stroke-linejoin="miter" stroke-linecap="butt" stroke-miterlimit="4" stroke-width="21.3333" stroke="#000" d="M682.816 388.075h61.989v24.102h-61.989v-24.102z"></path>
<path fill="#fff" stroke-linejoin="miter" stroke-linecap="butt" stroke-miterlimit="4" stroke-width="21.3333" stroke="#000" d="M680.184 416.63h105.596v120.18h-105.596v-120.18z"></path>
<path fill="#a4a0b5" stroke-linejoin="miter" stroke-linecap="butt" stroke-miterlimit="4" stroke-width="21.3333" stroke="#000" d="M681.538 438.471h104.74v24.102h-104.74v-24.102z"></path>
<path fill="none" opacity="0.628571" stroke-linejoin="miter" stroke-linecap="butt" stroke-miterlimit="4" stroke-width="21.7434" stroke="#000" d="M662.822 352.862h274.362c17.205 0 31.152 13.947 31.152 31.152v253.487c0 17.205-13.947 31.152-31.152 31.152h-274.362c-17.205 0-31.152-13.947-31.152-31.152v-253.487c0-17.205 13.947-31.152 31.152-31.152z"></path>
<path fill="none" opacity="0.514286" stroke-linejoin="miter" stroke-linecap="butt" stroke-miterlimit="4" stroke-width="21.8731" stroke="#fdfdfd" d="M635.464 713.713h329.076c5.303 0 9.602 4.299 9.602 9.602v25.37c0 5.303-4.299 9.602-9.602 9.602h-329.076c-5.303 0-9.602-4.299-9.602-9.602v-25.37c0-5.303 4.299-9.602 9.602-9.602z"></path>
<path fill="#000" opacity="0.32" stroke-linejoin="miter" stroke-linecap="butt" stroke-miterlimit="4" stroke-width="21.3333" stroke="#000" d="M823.962 724.774h123.234v23.265h-123.234v-23.265z"></path>
<path fill="#000" opacity="0.325714" stroke-linejoin="miter" stroke-linecap="butt" stroke-miterlimit="4" stroke-width="21.3333" stroke="#000" d="M661.332 383.999v144.94c13.928 1.13 26.336 4.393 40.825 4.393 99.615 0 183.436-29.492 236.507-71.739v-77.593h-277.332z"></path>
<path fill="#000" opacity="0.2" stroke-linejoin="miter" stroke-linecap="butt" stroke-miterlimit="4" stroke-width="21.3333" stroke="#000" d="M170.667 640.002h21.333v149.334h-21.333v-149.334z"></path>
<path fill="#000" opacity="0.2" stroke-linejoin="miter" stroke-linecap="butt" stroke-miterlimit="4" stroke-width="21.3333" stroke="#000" d="M213.333 640.002h21.333v149.334h-21.333v-149.334z"></path>
<path fill="#000" opacity="0.2" stroke-linejoin="miter" stroke-linecap="butt" stroke-miterlimit="4" stroke-width="21.3333" stroke="#000" d="M256 640.002h21.333v149.334h-21.333v-149.334z"></path>
<path fill="#000" opacity="0.2" stroke-linejoin="miter" stroke-linecap="butt" stroke-miterlimit="4" stroke-width="21.3333" stroke="#000" d="M192 640.002h21.333v149.334h-21.333v-149.334z"></path>
<path fill="#000" opacity="0.2" stroke-linejoin="miter" stroke-linecap="butt" stroke-miterlimit="4" stroke-width="21.3333" stroke="#000" d="M234.666 640.002h21.333v149.334h-21.333v-149.334z"></path>
<path fill="#000" opacity="0.2" stroke-linejoin="miter" stroke-linecap="butt" stroke-miterlimit="4" stroke-width="21.3333" stroke="#000" d="M277.333 640.002h21.333v149.334h-21.333v-149.334z"></path>
</svg>
