<!-- Generated by IcoMoon.io -->
<svg version="1.1" xmlns="http://www.w3.org/2000/svg" width="1024" height="1024" viewBox="0 0 1024 1024">
<title></title>
<g id="icomoon-ignore">
</g>
<path d="M831.683 912.307v-37.315c0-2.053-0.778-4.137-2.401-5.734-1.587-1.582-3.651-2.381-5.755-2.381h-111.058c-2.084 0-4.188 0.799-5.755 2.381-1.582 1.603-2.381 3.681-2.381 5.734v37.315l-43.581 24.090c-0.43 0.23-0.799 0.573-1.080 1.039-0.261 0.461-0.389 0.963-0.389 1.444v5.315c0 0.717 0.282 1.439 0.819 1.992 0.573 0.568 1.3 0.85 2.028 0.85h211.753c0.732 0 1.454-0.282 2.017-0.85 0.553-0.548 0.835-1.275 0.835-1.992v-5.315c0-0.486-0.148-0.983-0.41-1.444-0.261-0.466-0.614-0.809-1.060-1.039l-43.581-24.090z"></path>
<path d="M1018.342 517.658c-3.779-3.768-8.694-5.668-13.645-5.668h-473.4c-4.951 0-9.866 1.9-13.645 5.668-3.758 3.779-5.642 8.709-5.642 13.645v306.437c0 4.951 1.879 9.887 5.642 13.645 3.779 3.779 8.694 5.658 13.645 5.658h473.4c4.951 0 9.866-1.879 13.645-5.658 3.779-3.758 5.658-8.694 5.658-13.645v-306.437c0-4.931-1.879-9.861-5.658-13.645zM767.995 848.87c-4.731 0-8.545-3.825-8.545-8.535 0-4.721 3.814-8.535 8.545-8.535 4.69 0 8.545 3.814 8.545 8.535 0 4.71-3.855 8.535-8.545 8.535zM990.607 823.665h-445.22v-278.272h445.22v278.272z"></path>
<path d="M319.672 477.271v-37.309c0-2.074-0.778-4.142-2.381-5.745-1.582-1.582-3.666-2.381-5.755-2.381h-111.084c-2.084 0-4.152 0.799-5.755 2.381-1.603 1.603-2.365 3.666-2.365 5.745v37.309l-43.597 24.079c-0.425 0.241-0.799 0.594-1.060 1.044-0.282 0.466-0.41 0.968-0.41 1.459v5.299c0 0.737 0.282 1.454 0.84 2.012 0.558 0.548 1.285 0.829 2.028 0.829h211.732c0.727 0 1.454-0.276 2.012-0.829 0.558-0.558 0.84-1.275 0.84-2.012v-5.299c0-0.492-0.128-0.993-0.389-1.459-0.261-0.445-0.65-0.799-1.096-1.044l-43.561-24.079z"></path>
<path d="M506.348 82.627c-3.758-3.768-8.694-5.658-13.645-5.658h-473.395c-4.951 0-9.866 1.889-13.645 5.658-3.784 3.768-5.663 8.709-5.663 13.645v306.437c0 4.951 1.879 9.887 5.658 13.66 3.779 3.758 8.694 5.652 13.645 5.652h473.4c4.951 0 9.887-1.889 13.645-5.652 3.779-3.779 5.658-8.714 5.658-13.66v-306.437c0.005-4.936-1.874-9.876-5.658-13.645zM256.005 413.85c-4.731 0-8.545-3.825-8.545-8.545 0-4.71 3.814-8.535 8.545-8.535 4.69 0 8.525 3.825 8.525 8.535 0 4.721-3.835 8.545-8.525 8.545zM478.597 388.634h-445.199v-278.267h445.199v278.267z"></path>
<path d="M817.326 410.45c0 13.665-11.095 24.74-24.755 24.74-13.686 0-24.74-11.075-24.74-24.74 0-13.66 11.054-24.74 24.74-24.74 13.66 0 24.755 11.080 24.755 24.74z"></path>
<path d="M817.326 231.439c0 13.665-11.095 24.745-24.755 24.745-13.686 0-24.74-11.080-24.74-24.745 0-13.681 11.054-24.745 24.74-24.745 13.66 0 24.755 11.064 24.755 24.745z"></path>
<path d="M817.326 320.937c0 13.67-11.095 24.75-24.755 24.75-13.686 0-24.74-11.080-24.74-24.75 0-13.655 11.054-24.745 24.74-24.745 13.66 0.005 24.755 11.090 24.755 24.745z"></path>
<path d="M613.54 256.184c-13.686 0-24.74-11.080-24.74-24.745 0-13.681 11.054-24.745 24.74-24.745 13.681 0 24.74 11.064 24.74 24.745 0 13.665-11.059 24.745-24.74 24.745z"></path>
<path d="M703.063 256.184c-13.665 0-24.76-11.080-24.76-24.745 0-13.681 11.095-24.745 24.76-24.745 13.645 0 24.74 11.064 24.74 24.745 0 13.665-11.095 24.745-24.74 24.745z"></path>
<path d="M206.694 613.55c0-13.665 11.075-24.76 24.74-24.76 13.681 0 24.755 11.095 24.755 24.76 0 13.676-11.075 24.74-24.755 24.74-13.665 0-24.74-11.064-24.74-24.74z"></path>
<path d="M206.694 792.561c0-13.665 11.075-24.74 24.74-24.74 13.681 0 24.755 11.075 24.755 24.74 0 13.681-11.075 24.74-24.755 24.74-13.665 0-24.74-11.059-24.74-24.74z"></path>
<path d="M206.694 703.053c0-13.665 11.075-24.74 24.74-24.74 13.681 0 24.755 11.075 24.755 24.74s-11.075 24.75-24.755 24.75c-13.665 0-24.74-11.085-24.74-24.75z"></path>
<path d="M410.46 767.821c13.665 0 24.74 11.075 24.74 24.74 0 13.681-11.075 24.74-24.74 24.74s-24.74-11.059-24.74-24.74c0-13.665 11.075-24.74 24.74-24.74z"></path>
<path d="M320.957 767.821c13.665 0 24.74 11.075 24.74 24.74 0 13.681-11.075 24.74-24.74 24.74-13.681 0-24.74-11.059-24.74-24.74-0.005-13.665 11.054-24.74 24.74-24.74z"></path>
</svg>
