<!-- Generated by IcoMoon.io -->
<svg version="1.1" xmlns="http://www.w3.org/2000/svg" width="1024" height="1024" viewBox="0 0 1024 1024">
<title></title>
<g id="icomoon-ignore">
</g>
<path d="M693.786 281.374c-1.372-6.011-4.716-11.704-9.979-16.302-5.258-4.552-11.73-7.322-18.437-8.33l-107.648-20.823 31.14 20.675-49.172 154.132-27.689-114.509-27.699 114.509-49.142-154.132 31.13-20.675-107.663 20.823c-6.687 1.014-13.148 3.784-18.447 8.33-5.268 4.593-8.586 10.286-9.958 16.302l-31.913 140.216 60.211 20.89c19.999 20.787 75.935 36.070 143.053 37.514h20.869c67.098-1.444 123.034-16.732 143.043-37.514l60.247-20.89-31.944-140.216z"></path>
<path d="M512 251.556l-24.827 8.893 24.827 35.768 24.837-35.768z"></path>
<path d="M604.134 113.505c0-63.636-26.184-113.505-92.14-113.505-65.966 0-92.155 49.869-92.155 113.505-6.871 3.589-11.397 12.042-4.623 30.141 3.41 9.098 9.436 16.712 14.546 20.69 18.79 46.781 55.757 82.929 82.237 82.929s63.447-36.147 82.232-82.934c5.135-3.973 11.131-11.587 14.566-20.69 6.758-18.094 2.243-26.547-4.664-30.136z"></path>
<path d="M880.225 622.244c-5.535-21.432-25.457-35.318-46.761-33.987l-23.444-51.661h-289.357v-37.299h-17.331v37.299h-289.372l-23.419 51.661c-21.315-1.336-41.231 12.554-46.771 33.987-6.277 24.289 8.34 49.085 32.635 55.368 24.32 6.272 49.121-8.351 55.388-32.671 5.54-21.437-5.202-43.218-24.489-52.372l20.081-38.666h275.948v37.294c-20.951 4.060-36.792 22.477-36.792 44.626 0 25.103 20.347 45.445 45.455 45.445v0 0c25.114 0 45.445-20.342 45.445-45.445 0-22.149-15.826-40.566-36.782-44.605v-37.315h275.958l20.065 38.666c-19.282 9.155-30.003 30.94-24.484 52.372 6.267 24.32 31.058 38.938 55.363 32.671 24.315-6.282 38.938-31.063 32.666-55.368zM215.040 640.629c-3.881 15.022-19.267 24.084-34.278 20.209-15.032-3.876-24.084-19.261-20.219-34.278 3.876-15.022 19.251-24.084 34.284-20.209 15.002 3.871 24.069 19.256 20.214 34.278zM540.14 635.822c0 15.514-12.646 28.119-28.145 28.119v0 0c-15.524 0-28.145-12.605-28.145-28.119s12.616-28.14 28.145-28.14v0 0c15.498 0 28.145 12.626 28.145 28.14zM843.238 660.838c-15.022 3.876-30.403-5.192-34.258-20.209-3.896-15.002 5.171-30.403 20.209-34.278 15.022-3.876 30.403 5.192 34.258 20.209 3.891 15.037-5.166 30.403-20.209 34.278z"></path>
<path d="M263.327 891.095c-0.876-3.999-3.113-7.788-6.625-10.854-3.507-3.052-7.808-4.874-12.268-5.555l-80.323-15.585c12.59-9.795 25.129-26.481 32.947-45.942 3.4-2.668 7.419-7.731 9.692-13.773 4.516-12.047 1.49-17.669-3.103-20.065 0-42.373-17.434-75.597-61.343-75.597-43.919 0-61.353 33.219-61.353 75.597-4.588 2.396-7.603 8.018-3.098 20.065 2.263 6.047 6.292 11.11 9.702 13.773 7.793 19.461 20.332 36.147 32.937 45.942l-80.323 15.585c-4.439 0.681-8.75 2.504-12.288 5.555-3.497 3.072-5.709 6.856-6.62 10.854l-21.263 93.384 40.090 13.906c13.322 13.829 50.56 24.008 95.252 24.96h13.906c44.687-0.952 81.946-11.131 95.258-24.96l40.090-13.906-21.268-93.384z"></path>
<path d="M1002.747 891.095c-0.911-3.999-3.139-7.788-6.63-10.854-3.528-3.052-7.839-4.874-12.278-5.555l-80.328-15.585c12.611-9.795 25.144-26.481 32.947-45.942 3.42-2.668 7.419-7.731 9.708-13.773 4.516-12.047 1.48-17.669-3.103-20.065 0-42.373-17.434-75.597-61.343-75.597-43.93 0-61.343 33.219-61.343 75.597-4.588 2.396-7.619 8.018-3.103 20.065 2.263 6.047 6.287 11.11 9.687 13.773 7.839 19.461 20.372 36.147 32.963 45.942l-80.328 15.585c-4.46 0.681-8.75 2.504-12.278 5.555-3.492 3.072-5.734 6.856-6.63 10.854l-21.268 93.379 40.11 13.906c13.302 13.829 50.56 24.008 95.252 24.96h13.885c44.677-0.952 81.935-11.131 95.252-24.96l40.095-13.906-21.268-93.379z"></path>
<path d="M633.047 891.095c-0.916-3.999-3.123-7.788-6.636-10.854-3.523-3.052-7.818-4.874-12.298-5.555l-80.312-15.585c12.631-9.795 25.144-26.481 32.952-45.942 3.415-2.668 7.414-7.731 9.682-13.773 4.536-12.047 1.521-17.669-3.087-20.065 0-42.373-17.434-75.597-61.348-75.597-43.93 0-61.353 33.219-61.353 75.597-4.588 2.396-7.603 8.018-3.098 20.065 2.284 6.047 6.303 11.11 9.687 13.773 7.818 19.461 20.357 36.147 32.963 45.942l-80.328 15.585c-4.46 0.681-8.76 2.504-12.288 5.555-3.492 3.072-5.709 6.856-6.63 10.854l-21.253 93.379 40.105 13.906c13.312 13.829 50.56 24.008 95.247 24.96h13.911c44.682-0.952 81.94-11.131 95.247-24.96l40.11-13.906-21.274-93.379z"></path>
</svg>
