<!-- Generated by IcoMoon.io -->
<svg version="1.1" xmlns="http://www.w3.org/2000/svg" width="1024" height="1024" viewBox="0 0 1024 1024">
<title></title>
<g id="icomoon-ignore">
</g>
<path fill="none" stroke-linejoin="miter" stroke-linecap="butt" stroke-miterlimit="4" stroke-width="32" stroke="#000" d="M0 0h1024v1024h-1024v-1024z"></path>
<path stroke-linejoin="miter" stroke-linecap="butt" stroke-miterlimit="4" stroke-width="32" stroke="#000" fill="#000" d="M448 320v64c48.64 0.352 98.624 19.104 135.744 56.224s55.872 87.104 56.256 135.776h64c-0.384-65.056-25.344-131.392-75.008-181.024-49.632-49.632-115.968-74.624-180.992-74.976zM448 192v64c81.376 0.352 164.128 31.584 226.272 93.728 62.080 62.080 93.344 144.832 93.728 226.272h64c-0.352-97.792-37.856-196.928-112.48-271.552s-173.76-112.096-271.52-112.448zM810.016 213.952c-99.968-99.968-230.976-149.952-362.016-149.952v64c114.176 0.384 228.224 45.504 315.36 132.608 87.136 87.136 132.256 201.216 132.64 315.392h64c0-131.072-49.984-262.080-149.984-362.048zM576 544c0-53.024-43.008-96-96-96s-96 42.976-96 96c0 41.728 26.816 76.896 64 90.144v203.744c-3.136 1.12-6.176 2.304-9.152 3.712l-256.448-256.448c5.984-12.48 9.6-26.336 9.6-41.152 0-53.024-42.976-96-96-96s-96 42.976-96 96c0 41.76 26.784 76.896 64 90.112v203.744c-37.216 13.248-64 48.384-64 90.144 0 53.024 42.976 96 96 96s96-42.976 96-96c0-41.76-26.784-76.896-64-90.112v-203.744c3.136-1.12 6.176-2.304 9.12-3.712l256.48 256.48c-5.984 12.448-9.6 26.304-9.6 41.088 0 53.024 42.976 96 96 96 52.992 0 96-42.976 96-96 0-41.76-26.816-76.896-64-90.112v-203.744c37.184-13.28 64-48.416 64-90.144z"></path>
</svg>
